<svg xmlns="http://www.w3.org/2000/svg" viewBox="0 0 255.35 335.23"><defs></defs><g id="Capa_2" data-name="Capa 2"><g id="Path" class="cls-1"><g id="Path-2" data-name="Path"><path class="cls-2" d="M186.6,98.21a29.49,29.49,0,0,1-29.46-29.46V0H29.46A29.5,29.5,0,0,0,0,29.46v276.3a29.5,29.5,0,0,0,29.46,29.47H225.88a29.5,29.5,0,0,0,29.47-29.47V98.21ZM113.79,275.65H65c-3.37,0-6.09-4.4-6.09-9.83S61.65,256,65,256h48.77c3.37,0,6.1,4.4,6.1,9.82S117.16,275.65,113.79,275.65ZM152,236.36H66.09c-4,0-7.16-4.39-7.16-9.82s3.2-9.82,7.16-9.82H152c4,0,7.16,4.39,7.16,9.82S156,236.36,152,236.36Zm34.59-39.28H68.75a9.83,9.83,0,0,1,0-19.65H186.6a9.83,9.83,0,0,1,0,19.65Zm0-39.29H68.75a9.82,9.82,0,0,1,0-19.64H186.6a9.82,9.82,0,0,1,0,19.64Zm0-79.22h63L176.78,5.76v63A9.82,9.82,0,0,0,186.6,78.57Z"/></g></g></g></svg>