<svg xmlns="http://www.w3.org/2000/svg" viewBox="0 0 382.43 382.43"><defs></defs><g id="Capa_2" data-name="Capa 2"><g id="Vector" class="cls-1"><g id="Vector-2" data-name="Vector"><path class="cls-2" d="M371.52,292.05c12.63-36.1,15.8-72.29,1.43-108.58A139.28,139.28,0,0,0,305.12,110a166.93,166.93,0,0,1-186,196,141.74,141.74,0,0,0,120.61,71.15,139.74,139.74,0,0,0,62.94-13.7,13,13,0,0,1,5.57-1.25,12.86,12.86,0,0,1,9,3.62,59.92,59.92,0,0,0,59.09,13.92A114.59,114.59,0,0,1,371.52,292.05Zm-228.3-10.39c77.91-1.16,138.93-63,138.93-140.82C282.15,64.73,220.16,1.56,144,0,65.45-1.53.19,62,0,140.49a139.68,139.68,0,0,0,11.13,55.27l.3.77a114.45,114.45,0,0,1-4.78,87.71,59.9,59.9,0,0,0,59.09-13.92A12.91,12.91,0,0,1,80.28,268,139.61,139.61,0,0,0,143.22,281.66Zm73.11-160.58a20.4,20.4,0,1,1-20.43,20.4A20.41,20.41,0,0,1,216.33,121.08ZM65.83,161.87a20.4,20.4,0,1,1,20.42-20.39A20.42,20.42,0,0,1,65.83,161.87Zm54.82-20.39a20.43,20.43,0,1,1,20.43,20.39A20.41,20.41,0,0,1,120.65,141.48Z"/></g></g></g></svg>