<svg xmlns="http://www.w3.org/2000/svg" viewBox="0 0 356.7 356.7"><defs></defs><g id="Capa_2" data-name="Capa 2"><g id="Path" class="cls-1"><g id="Path-2" data-name="Path"><path class="cls-2" d="M137.48,0H26A26,26,0,0,0,0,26V92.89a26,26,0,0,0,26,26H137.48a26,26,0,0,0,26-26V26A26,26,0,0,0,137.48,0Zm0,148.63H26a26,26,0,0,0-26,26V330.7a26,26,0,0,0,26,26H137.48a26,26,0,0,0,26-26V174.64A26,26,0,0,0,137.48,148.63ZM330.69,237.8H219.23a26,26,0,0,0-26,26V330.7a26,26,0,0,0,26,26H330.69a26,26,0,0,0,26-26V263.81A26,26,0,0,0,330.69,237.8Zm0-237.8H219.23a26,26,0,0,0-26,26V182.07a26,26,0,0,0,26,26H330.69a26,26,0,0,0,26-26V26A26,26,0,0,0,330.69,0Z"/></g></g></g></svg>