<svg xmlns="http://www.w3.org/2000/svg" viewBox="0 0 146.66 146.66"><defs></defs><g id="Capa_2" data-name="Capa 2"><g id="Shape" class="cls-1"><g id="Shape-2" data-name="Shape"><path class="cls-2" d="M140.54,67.22H60.22a21.39,21.39,0,0,0-41,0H6.11a6.11,6.11,0,0,0,0,12.22H19.22a21.39,21.39,0,0,0,41,0h80.32a6.11,6.11,0,1,0,0-12.22ZM39.72,82.5a9.17,9.17,0,1,1,9.17-9.17A9.18,9.18,0,0,1,39.72,82.5ZM6.11,27.5H86.44a21.4,21.4,0,0,0,41,0h13.1a6.11,6.11,0,1,0,0-12.22h-13.1a21.39,21.39,0,0,0-41,0H6.11a6.11,6.11,0,0,0,0,12.22ZM106.94,12.22a9.17,9.17,0,1,1-9.17,9.17A9.17,9.17,0,0,1,106.94,12.22Zm33.6,106.94h-13.1a21.39,21.39,0,0,0-41,0H6.11a6.11,6.11,0,0,0,0,12.22H86.44a21.39,21.39,0,0,0,41,0h13.1a6.11,6.11,0,1,0,0-12.22Zm-33.6,15.28a9.17,9.17,0,1,1,9.16-9.17A9.18,9.18,0,0,1,106.94,134.44Z"/></g></g></g></svg>