<svg xmlns="http://www.w3.org/2000/svg" viewBox="0 0 428.49 428.49"><defs></defs><g id="Capa_2" data-name="Capa 2"><g id="logout_Imagen" data-name="logout Imagen"><path class="cls-1" d="M238,0V47.51H47.75V380.85H238v47.63h-2.09q-93.83,0-187.65,0C24,428.46,4.52,411.9.56,388.06A47.29,47.29,0,0,1,0,380.35Q0,214.23,0,48.1A47.52,47.52,0,0,1,40.53.53,49.48,49.48,0,0,1,48.23,0q93.83,0,187.65,0Z"/><path class="cls-1" d="M95.31,238.12V190.5H285.56V95.13L428.49,214.24c-47.61,39.67-95.05,79.2-142.77,119v-95.1Z"/></g></g></svg>