<svg xmlns="http://www.w3.org/2000/svg" viewBox="0 0 422.09 346.08"><defs></defs><g id="Capa_2" data-name="Capa 2"><g id="Path" class="cls-1"><g id="Path-2" data-name="Path"><path class="cls-2" d="M384.41,301.43V0l-11.5,1A442.33,442.33,0,0,0,238.83,33.65l-20.24,8.4V342.29l14.74-6.13A460.27,460.27,0,0,1,372,302.44ZM399.48,44.56V308.37a7.53,7.53,0,0,1-6.92,7.54l-19.3,1.58q-8.36.69-16.67,1.72c-1.79.21-3.58.5-5.36.75-3.73.5-7.46,1-11.17,1.59-2.16.34-4.31.75-6.47,1.13-3.32.58-6.65,1.16-10,1.81-2.27.46-4.52,1-6.83,1.45-3.16.67-6.32,1.36-9.45,2.1q-3.52.85-7,1.76c-3.05.75-6.08,1.56-9.12,2.41-2.36.65-4.71,1.33-7.07,2-3,.89-6,1.8-9,2.75l-7,2.26q-4.47,1.5-8.91,3.11c-2.26.82-4.52,1.65-6.83,2.51l-3.09,1.22H422.09V44.56ZM49.19,1,37.69,0V301.46l13.38,1.13a457.06,457.06,0,0,1,138.54,33.92l13.9,5.78V42.05l-20.22-8.39A442.17,442.17,0,0,0,49.19,1Zm114.4,341.59c-3.07-1.11-6.12-2.19-9.21-3.22q-3.34-1.14-6.71-2.2-4.59-1.51-9.2-2.84c-2.26-.66-4.52-1.33-6.78-2-3.1-.86-6.21-1.67-9.32-2.47-2.26-.58-4.52-1.16-6.84-1.7-3.15-.76-6.33-1.45-9.5-2.13-2.26-.49-4.53-1-6.78-1.44-3.29-.65-6.59-1.23-9.89-1.81l-6.5-1.14c-3.64-.58-7.3-1.07-11-1.56-1.85-.25-3.68-.54-5.53-.75q-8.28-1-16.58-1.71l-20.29-1.72a7.54,7.54,0,0,1-6.9-7.54V44.56H0v301.5H172.88c-.93-.36-1.86-.75-2.79-1.1C167.93,344.14,165.76,343.36,163.59,342.56Z"/></g></g></g></svg>