<svg xmlns="http://www.w3.org/2000/svg" viewBox="0 0 414.19 352.64"><defs></defs><g id="Capa_2" data-name="Capa 2"><g id="Vector" class="cls-1"><g id="Vector-2" data-name="Vector"><path class="cls-2" d="M379.67,70.53H345.16V352.64h34.51c19,0,34.52-15.88,34.52-35.27V105.79C414.19,86.4,398.65,70.53,379.67,70.53ZM276.12,35.27C276.12,15.88,260.59,0,241.61,0h-69c-19,0-34.51,15.88-34.51,35.27V70.53H103.54V352.64h207.1V70.53H276.12ZM241.61,70.53h-69V35.26h69ZM0,105.79V317.37c0,19.39,15.54,35.27,34.51,35.27H69V70.53H34.51C15.54,70.53,0,86.4,0,105.79Z"/></g></g></g></svg>