<svg xmlns="http://www.w3.org/2000/svg" viewBox="0 0 139.36 151.59"><defs></defs><g id="Capa_2" data-name="Capa 2"><g id="Vector" class="cls-1"><g id="Vector-2" data-name="Vector"><path class="cls-2" d="M50.47,139a20.92,20.92,0,0,0,38.42,0c-6.08.3-12.39.5-19.21.5S56.55,139.26,50.47,139Zm86.08-32.09c-8-10.08-21.4-29.89-21.4-49.27A45.7,45.7,0,0,0,84.84,14.75a15.16,15.16,0,0,0-30.31,0A45.7,45.7,0,0,0,24.2,57.6C24.2,77,10.8,96.79,2.8,106.87A12.87,12.87,0,0,0,.6,118.76,12.53,12.53,0,0,0,9,127c7,2.07,18.5,4.39,36,5.58,7.58.51,15.74.81,24.65.81s17.06-.3,24.65-.81c17.53-1.19,29-3.51,36-5.58a12.53,12.53,0,0,0,8.4-8.25A12.87,12.87,0,0,0,136.55,106.87Z"/></g></g></g></svg>