<svg xmlns="http://www.w3.org/2000/svg" viewBox="0 0 236.15 212.37"><defs></defs><g id="Capa_2" data-name="Capa 2"><g id="Path" class="cls-1"><g id="Path-2" data-name="Path"><path class="cls-2" d="M192.71,148.08H138.2a3.66,3.66,0,1,0,0,7.31h54.51a3.45,3.45,0,0,0,3.66-3.66A3.66,3.66,0,0,0,192.71,148.08Zm-58.17-35.86a3.45,3.45,0,0,0,3.66,3.66h54.51a3.66,3.66,0,0,0,0-7.32H138.2A3.46,3.46,0,0,0,134.54,112.22Zm97,61.83H216.86V68.68a27.07,27.07,0,0,0-21.22-26.34V50a20.1,20.1,0,0,1,13.9,19V174.42h-60a3.29,3.29,0,0,0-2.56,1.1l-10.61,10.61H99.78L89.17,175.52a3.29,3.29,0,0,0-2.56-1.1h-60V68.68A19.67,19.67,0,0,1,46.37,48.93H82.22V41.61H46.37A27,27,0,0,0,19.29,68.68V174.05H4.66A3.67,3.67,0,0,0,1,177.71v13.17a3.34,3.34,0,0,0,1.46,2.93L23,210.64a5.3,5.3,0,0,0,2.2.73H211a3.32,3.32,0,0,0,2.56-1.1,60.14,60.14,0,0,1,9.88-8.05,50.81,50.81,0,0,0,10.61-8.78,3.32,3.32,0,0,0,1.1-2.56V177.71A3.46,3.46,0,0,0,231.49,174.05Zm-38.78-45.73H138.2a3.66,3.66,0,0,0,0,7.32h54.51a3.46,3.46,0,0,0,3.66-3.66A3.66,3.66,0,0,0,192.71,128.32ZM63.8,96A15.25,15.25,0,1,0,79,80.76,15.24,15.24,0,0,0,63.8,96ZM93.2,63.56h50.12v15a3.21,3.21,0,0,0,2.19,3.3,3.35,3.35,0,0,0,4-.74L169.3,63.2H185a3.67,3.67,0,0,0,3.66-3.66V4.66A3.67,3.67,0,0,0,185,1H93.56A3.94,3.94,0,0,0,89.9,4.66V59.54A3.33,3.33,0,0,0,93.2,63.56ZM109.66,18.2H168.2a3.46,3.46,0,0,1,3.66,3.65,3.46,3.46,0,0,1-3.66,3.66H109.66A3.46,3.46,0,0,1,106,21.85,3.66,3.66,0,0,1,109.66,18.2Zm0,18.65H168.2a3.46,3.46,0,0,1,3.66,3.66,3.46,3.46,0,0,1-3.66,3.66H109.66A3.46,3.46,0,0,1,106,40.51,3.67,3.67,0,0,1,109.66,36.85ZM97.53,114.48a26.16,26.16,0,0,1-37,0,12,12,0,0,0-12,12v27.44h61V126.49a12,12,0,0,0-12-12Z"/><path class="cls-3" d="M192.71,148.08H138.2a3.66,3.66,0,1,0,0,7.31h54.51a3.45,3.45,0,0,0,3.66-3.66A3.66,3.66,0,0,0,192.71,148.08Zm-58.17-35.86a3.45,3.45,0,0,0,3.66,3.66h54.51a3.66,3.66,0,0,0,0-7.32H138.2A3.46,3.46,0,0,0,134.54,112.22Zm97,61.83H216.86V68.68a27.07,27.07,0,0,0-21.22-26.34V50a20.1,20.1,0,0,1,13.9,19V174.42h-60a3.29,3.29,0,0,0-2.56,1.1l-10.61,10.61H99.78L89.17,175.52a3.29,3.29,0,0,0-2.56-1.1h-60V68.68A19.67,19.67,0,0,1,46.37,48.93H82.22V41.61H46.37A27,27,0,0,0,19.29,68.68V174.05H4.66A3.67,3.67,0,0,0,1,177.71v13.17a3.34,3.34,0,0,0,1.46,2.93L23,210.64a5.3,5.3,0,0,0,2.2.73H211a3.32,3.32,0,0,0,2.56-1.1,60.14,60.14,0,0,1,9.88-8.05,50.81,50.81,0,0,0,10.61-8.78,3.32,3.32,0,0,0,1.1-2.56V177.71A3.46,3.46,0,0,0,231.49,174.05Zm-38.78-45.73H138.2a3.66,3.66,0,0,0,0,7.32h54.51a3.46,3.46,0,0,0,3.66-3.66A3.66,3.66,0,0,0,192.71,128.32ZM63.8,96A15.25,15.25,0,1,0,79,80.76,15.24,15.24,0,0,0,63.8,96ZM93.2,63.56h50.12v15a3.21,3.21,0,0,0,2.19,3.3,3.35,3.35,0,0,0,4-.74L169.3,63.2H185a3.67,3.67,0,0,0,3.66-3.66V4.66A3.67,3.67,0,0,0,185,1H93.56A3.94,3.94,0,0,0,89.9,4.66V59.54A3.33,3.33,0,0,0,93.2,63.56ZM109.66,18.2H168.2a3.46,3.46,0,0,1,3.66,3.65,3.46,3.46,0,0,1-3.66,3.66H109.66A3.46,3.46,0,0,1,106,21.85,3.66,3.66,0,0,1,109.66,18.2Zm0,18.65H168.2a3.46,3.46,0,0,1,3.66,3.66,3.46,3.46,0,0,1-3.66,3.66H109.66A3.46,3.46,0,0,1,106,40.51,3.67,3.67,0,0,1,109.66,36.85ZM97.53,114.48a26.16,26.16,0,0,1-37,0,12,12,0,0,0-12,12v27.44h61V126.49a12,12,0,0,0-12-12Z"/></g></g></g></svg>